<?xml version="1.0" encoding="utf-8"?>
<!-- Generator: Adobe Illustrator 25.2.3, SVG Export Plug-In . SVG Version: 6.00 Build 0)  -->
<svg version="1.1" id="Layer_1" xmlns="http://www.w3.org/2000/svg" xmlns:xlink="http://www.w3.org/1999/xlink" x="0px" y="0px"
	 viewBox="0 0 64 64" style="enable-background:new 0 0 64 64;" xml:space="preserve">
<style type="text/css">
	.st0{fill:#78909C;stroke:#78909C;stroke-width:3;stroke-miterlimit:10;}
</style>
<image style="display:none;overflow:visible;" width="216" height="233" xlink:href="../../../../eye-icon.png"  transform="matrix(0.2963 0 0 0.2963 0 -2.5185)">
</image>
<path class="st0" d="M38,32.4c0,3.4-2.8,6.2-6.2,6.2s-6.2-2.8-6.2-6.2c0-3.4,2.8-6.2,6.2-6.2S38,29,38,32.4z"/>
<path class="st0" d="M54.8,26.2c-5.1-4.7-7.6-7.1-11.2-8.7c-1.2-0.5-5.9-2.6-12.4-2.5c-5.9,0.1-10.1,2-11.2,2.5
	C16.6,19,14.3,21,10,25c-3.3,3-5.8,5.6-7.5,7.5c1.9,2.9,5.4,7.4,11.2,11.2c3.3,2.2,9.8,6.5,18.7,6.2c8.6-0.2,14.7-4.6,18.7-7.5
	c4.8-3.5,8-7.3,10-10C59.6,30.9,57.5,28.7,54.8,26.2z M31.8,47.4c-8.2,0-14.9-6.7-14.9-14.9s6.7-14.9,14.9-14.9s14.9,6.7,14.9,14.9
	S40,47.4,31.8,47.4z"/>
</svg>
