<?xml version="1.0" encoding="utf-8"?>
<!-- Generator: Adobe Illustrator 25.2.3, SVG Export Plug-In . SVG Version: 6.00 Build 0)  -->
<svg version="1.1" id="Layer_1" xmlns="http://www.w3.org/2000/svg" xmlns:xlink="http://www.w3.org/1999/xlink" x="0px" y="0px"
	 viewBox="0 0 24 24" style="enable-background:new 0 0 24 24;" xml:space="preserve">
<style type="text/css">
	.st0{fill:#78909C;}
</style>
<path class="st0" d="M5,4h14c1.1,0,2,0.9,2,2v13c0,1.1-0.9,2-2,2H5c-1.1,0-2-0.9-2-2V6C3,4.9,3.9,4,5,4z M5,9v10h14V9H5z"/>
<path class="st0" d="M7,2c0.6,0,1,0.4,1,1v3c0,0.6-0.4,1-1,1S6,6.6,6,6V3C6,2.4,6.4,2,7,2z M17,2c0.6,0,1,0.4,1,1v3c0,0.6-0.4,1-1,1
	s-1-0.4-1-1V3C16,2.4,16.4,2,17,2z"/>
</svg>
