<?xml version="1.0" encoding="utf-8"?>
<!-- Generator: Adobe Illustrator 25.2.3, SVG Export Plug-In . SVG Version: 6.00 Build 0)  -->
<svg version="1.1" id="Layer_1" xmlns="http://www.w3.org/2000/svg" xmlns:xlink="http://www.w3.org/1999/xlink" x="0px" y="0px"
	 viewBox="0 0 24 24" style="enable-background:new 0 0 24 24;" xml:space="preserve">
<style type="text/css">
	.st0{fill:#78909C;}
</style>
<path class="st0" d="M4,14c0-0.3,0.1-0.5,0.3-0.7l11-11c0.4-0.4,1-0.4,1.4,0l3,3c0.4,0.4,0.4,1,0,1.4l-11,11C8.5,17.9,8.3,18,8,18H5
	c-0.6,0-1-0.4-1-1V14z"/>
<path class="st0" d="M3,20h18c0.6,0,1,0.4,1,1l0,0c0,0.6-0.4,1-1,1H3c-0.6,0-1-0.4-1-1l0,0C2,20.4,2.4,20,3,20z"/>
</svg>
