<?xml version="1.0" encoding="utf-8"?>
<!-- Generator: Adobe Illustrator 25.2.3, SVG Export Plug-In . SVG Version: 6.00 Build 0)  -->
<svg version="1.1" xmlns="http://www.w3.org/2000/svg" xmlns:xlink="http://www.w3.org/1999/xlink" x="0px" y="0px"
	 viewBox="0 0 64 64" style="enable-background:new 0 0 64 64;" xml:space="preserve">
<style type="text/css">
	.st0{fill:#78909C;}
</style>
<g id="Layer_1">
	<g id="Layer_1_1_">
	</g>
</g>
<g id="trace">
	<g id="Layer_2_1_">
		<circle class="st0" cx="32.3" cy="54.6" r="6.4"/>
	</g>
	<path class="st0" d="M32.4,45.9c0.5-0.2,1.2-0.5,1.9-1.2c1-0.8,1.4-1.8,1.8-2.7c1.6-3.5,2.4-6.1,2.4-6.1c0.6-1.9,0.9-3.4,1.2-4.8
		c1.1-5,1.7-7.5,2.1-10.2c0.8-4.7,1.2-7.1,1.1-9.1c-0.2-3-0.4-6.1-2.7-8.6C37.5,0.4,33.8,0.1,33,0c-0.7,0-5.1-0.2-8.3,3.1
		c-2.5,2.6-2.7,5.7-2.9,8.2c-0.1,0.7-0.1,1.6,0.7,6.9c0.7,5.1,1.1,7.6,1.9,10.9c1,4,1,2.9,2.2,7.8c0,0,0.3,1.2,2,5.5
		c0.4,0.9,0.8,2.1,2,2.9C31.2,45.6,31.9,45.8,32.4,45.9z"/>
</g>
</svg>
